<svg xmlns="http://www.w3.org/2000/svg" viewBox="0 0 100 100" width="100" height="100">
      <style>
        .runner { fill: #4CAF50; }
        .trail { fill: #2196F3; opacity: 0.7; }
        .circle { fill: #FFC107; }
      </style>
      <!-- Motion Trail -->
      <rect class="trail" x="15" y="40" width="20" height="10" rx="5" />
      <rect class="trail" x="25" y="50" width="30" height="10" rx="5" />
      <rect class="trail" x="40" y="60" width="40" height="10" rx="5" />
      
      <!-- Runner Icon -->
      <path class="runner" d="M50 30a10 10 0 1 1 10 10 10 10 0 0 1-10-10ZM45 45c-3 0-6 3-6 6s3 4 4 5l5 3 4-4-3-3h-4V45Zm15 5h-8l-2 6 6 5 2 5 6-2-4-7 1-3h7l-3-4h-5l-1-2Zm-20 8-5 8 2 4 5 2 4-2-2-5Zm10 6-5 3-3 10 5 1 6-2v-8Z" />
      
      <!-- Circular Background -->
      <circle class="circle" cx="50" cy="50" r="48" />
    </svg>
